{"asset":{"version":"2.0","generator":"Unity 2022.3.62f1 glTFast 6.14.1"},"nodes":[{"name":"InteractionPoint","translation":[0,0,-0.01]},{"name":"Part1","mesh":0,"translation":[0,0.00100000016,0.00699999975],"rotation":[-0.5446391,0,0,0.838670552]},{"name":"Part2","mesh":1,"translation":[0,0.00100000016,0.00699999975],"rotation":[-0.5446391,0,0,0.838670552]},{"name":"Part3","mesh":2,"translation":[0,0.00100000016,0.00699999975],"rotation":[-0.5446391,0,0,0.838670552]},{"name":"Part4","mesh":3,"translation":[0,0.00100000016,0.0075],"rotation":[-0.5446391,0,0,0.838670552]},{"name":"Parts","children":[1,2,3,4]},{"name":"Shadow","translation":[0,-0.00959999952,0],"rotation":[0.7071068,0,0,0.7071067],"scale":[1.5,1.5,1.5]},{"name":"Portal","children":[0,5,6],"translation":[-0.214999989,0.01,0.225],"scale":[100,100,100]}],"buffers":[{"uri":"Portal.bin","byteLength":29256}],"bufferViews":[{"buffer":0,"byteLength":450,"target":34963},{"buffer":0,"byteLength":450,"byteOffset":450,"target":34963},{"buffer":0,"byteLength":450,"byteOffset":900,"target":34963},{"buffer":0,"byteLength":450,"byteOffset":1350,"target":34963},{"buffer":0,"byteLength":6864,"byteOffset":1800,"byteStride":48,"target":34962},{"buffer":0,"byteLength":6864,"byteOffset":8664,"byteStride":48,"target":34962},{"buffer":0,"byteLength":6864,"byteOffset":15528,"byteStride":48,"target":34962},{"buffer":0,"byteLength":6864,"byteOffset":22392,"byteStride":48,"target":34962}],"accessors":[{"bufferView":4,"componentType":5126,"count":143,"type":"VEC3","max":[0.01474226,0.00492858,0.0146988891],"min":[-0.01474226,0.00144853489,-0.0144855231]},{"bufferView":4,"componentType":5126,"count":143,"type":"VEC3","byteOffset":12},{"bufferView":4,"componentType":5126,"count":143,"type":"VEC4","byteOffset":24},{"bufferView":4,"componentType":5126,"count":143,"type":"VEC2","byteOffset":40},{"bufferView":0,"componentType":5123,"count":225,"type":"SCALAR"},{"bufferView":5,"componentType":5126,"count":143,"type":"VEC3","max":[0.01474226,0.007151911,0.0146988891],"min":[-0.01474226,0.00258713984,-0.014485525]},{"bufferView":5,"componentType":5126,"count":143,"type":"VEC3","byteOffset":12},{"bufferView":5,"componentType":5126,"count":143,"type":"VEC4","byteOffset":24},{"bufferView":5,"componentType":5126,"count":143,"type":"VEC2","byteOffset":40},{"bufferView":1,"componentType":5123,"count":225,"type":"SCALAR"},{"bufferView":6,"componentType":5126,"count":143,"type":"VEC3","max":[0.01474226,0.008329115,0.0146988891],"min":[-0.01474226,0.00376434438,-0.014485525]},{"bufferView":6,"componentType":5126,"count":143,"type":"VEC3","byteOffset":12},{"bufferView":6,"componentType":5126,"count":143,"type":"VEC4","byteOffset":24},{"bufferView":6,"componentType":5126,"count":143,"type":"VEC2","byteOffset":40},{"bufferView":2,"componentType":5123,"count":225,"type":"SCALAR"},{"bufferView":7,"componentType":5126,"count":143,"type":"VEC3","max":[0.01474226,0.009457345,0.0146988891],"min":[-0.01474226,0.00489257928,-0.014485525]},{"bufferView":7,"componentType":5126,"count":143,"type":"VEC3","byteOffset":12},{"bufferView":7,"componentType":5126,"count":143,"type":"VEC4","byteOffset":24},{"bufferView":7,"componentType":5126,"count":143,"type":"VEC2","byteOffset":40},{"bufferView":3,"componentType":5123,"count":225,"type":"SCALAR"}],"images":[{"name":"Portal.png","uri":"Portal.png","mimeType":"image/png"}],"materials":[{"name":"Portal","pbrMetallicRoughness":{"metallicFactor":0,"baseColorTexture":{"index":0}},"alphaMode":"BLEND"}],"meshes":[{"name":"Part1","primitives":[{"attributes":{"POSITION":0,"NORMAL":1,"TANGENT":2,"TEXCOORD_0":3},"indices":4,"material":0}]},{"name":"Part2","primitives":[{"attributes":{"POSITION":5,"NORMAL":6,"TANGENT":7,"TEXCOORD_0":8},"indices":9,"material":0}]},{"name":"Part3","primitives":[{"attributes":{"POSITION":10,"NORMAL":11,"TANGENT":12,"TEXCOORD_0":13},"indices":14,"material":0}]},{"name":"Part4","primitives":[{"attributes":{"POSITION":15,"NORMAL":16,"TANGENT":17,"TEXCOORD_0":18},"indices":19,"material":0}]}],"samplers":[{"wrapS":33071,"wrapT":33071}],"scene":0,"scenes":[{"name":"Portal","nodes":[7]}],"textures":[{"source":0,"sampler":0}]}